<svg width="77" height="18" viewBox="0 0 77 18" fill="none" xmlns="http://www.w3.org/2000/svg">
<rect y="3" width="58" height="14" rx="7" fill="#EB5757" fill-opacity="0.2"/>
<path d="M12.1354 13H11.2565V5.9541H12.1354V13ZM13.7571 13V7.73633H14.5579V8.56641H14.636C14.916 7.95117 15.4433 7.64355 16.2181 7.64355C16.8073 7.64355 17.2614 7.81283 17.5804 8.15137C17.8994 8.48665 18.0589 8.9668 18.0589 9.5918V13H17.219V9.79688C17.219 9.32487 17.1165 8.97493 16.9114 8.74707C16.7096 8.51595 16.3987 8.40039 15.9788 8.40039C15.5556 8.40039 15.2187 8.53385 14.9681 8.80078C14.7207 9.06445 14.597 9.42578 14.597 9.88477V13H13.7571ZM21.1504 12.3555C21.5833 12.3555 21.9414 12.2301 22.2246 11.9795C22.511 11.7288 22.6543 11.4147 22.6543 11.0371V10.5537L21.2383 10.6465C20.8411 10.6725 20.5498 10.7555 20.3642 10.8955C20.1787 11.0355 20.0859 11.2389 20.0859 11.5059C20.0859 11.7695 20.1852 11.9779 20.3838 12.1309C20.5823 12.2806 20.8379 12.3555 21.1504 12.3555ZM20.9941 13.0928C20.4765 13.0928 20.0501 12.9512 19.7148 12.668C19.3828 12.3815 19.2168 12.0007 19.2168 11.5254C19.2168 11.0566 19.3828 10.6888 19.7148 10.4219C20.0469 10.1549 20.5205 10.0036 21.1357 9.96777L22.6543 9.875V9.39648C22.6543 9.07096 22.5534 8.82194 22.3515 8.64941C22.1497 8.47689 21.8535 8.39062 21.4629 8.39062C21.1471 8.39062 20.8851 8.44759 20.6767 8.56152C20.4684 8.67546 20.3349 8.83659 20.2763 9.04492H19.4267C19.4821 8.625 19.6985 8.28646 20.0761 8.0293C20.457 7.77214 20.929 7.64355 21.4922 7.64355C22.1302 7.64355 22.6233 7.79818 22.9717 8.10742C23.32 8.41667 23.4941 8.84635 23.4941 9.39648V13H22.6933V12.2236H22.6152C22.4459 12.5036 22.2213 12.7184 21.9414 12.8682C21.6614 13.0179 21.3457 13.0928 20.9941 13.0928ZM29.3346 9.34766H28.485C28.4134 9.07096 28.2588 8.84473 28.0212 8.66895C27.7868 8.48991 27.4889 8.40039 27.1276 8.40039C26.6556 8.40039 26.2796 8.57617 25.9997 8.92773C25.723 9.2793 25.5846 9.75293 25.5846 10.3486C25.5846 10.9541 25.7246 11.4375 26.0045 11.7988C26.2845 12.1569 26.6588 12.3359 27.1276 12.3359C27.4824 12.3359 27.777 12.2562 28.0114 12.0967C28.249 11.9372 28.4069 11.7093 28.485 11.4131H29.3346C29.2565 11.9111 29.0238 12.3164 28.6364 12.6289C28.249 12.9382 27.7477 13.0928 27.1325 13.0928C26.3935 13.0928 25.806 12.8454 25.3698 12.3506C24.9336 11.8525 24.7155 11.1852 24.7155 10.3486C24.7155 9.52832 24.9336 8.8724 25.3698 8.38086C25.806 7.88932 26.3919 7.64355 27.1276 7.64355C27.7428 7.64355 28.2441 7.80469 28.6315 8.12695C29.0221 8.44922 29.2565 8.85612 29.3346 9.34766ZM30.9564 6.37402H31.7962V7.73633H32.9681V8.43945H31.7962V11.418C31.7962 11.7272 31.8581 11.9518 31.9818 12.0918C32.1055 12.2318 32.304 12.3018 32.5775 12.3018C32.6979 12.3018 32.8281 12.2952 32.9681 12.2822V12.9902C32.7826 13.0228 32.6182 13.0391 32.4749 13.0391C31.9313 13.0391 31.5423 12.93 31.308 12.7119C31.0736 12.4938 30.9564 12.1341 30.9564 11.6328V8.43945H30.1068V7.73633H30.9564V6.37402ZM34.1895 13V7.73633H35.0293V13H34.1895ZM35.0244 6.49609C34.9105 6.61003 34.7722 6.66699 34.6094 6.66699C34.4466 6.66699 34.3083 6.61003 34.1944 6.49609C34.0804 6.37891 34.0235 6.24056 34.0235 6.08105C34.0235 5.92155 34.0804 5.78483 34.1944 5.6709C34.3083 5.55371 34.4466 5.49512 34.6094 5.49512C34.7722 5.49512 34.9105 5.55371 35.0244 5.6709C35.1384 5.78483 35.1953 5.92155 35.1953 6.08105C35.1953 6.24056 35.1384 6.37891 35.0244 6.49609ZM36.1042 7.73633H37.0026L38.4431 12.0723H38.5212L39.9616 7.73633H40.8601L38.9118 13H38.0524L36.1042 7.73633ZM43.8197 8.38574C43.3998 8.38574 43.0547 8.52734 42.7846 8.81055C42.5144 9.09375 42.363 9.4681 42.3305 9.93359H45.2309C45.2211 9.4681 45.0876 9.09375 44.8305 8.81055C44.5733 8.52734 44.2364 8.38574 43.8197 8.38574ZM45.2064 11.6377H46.0463C45.9193 12.0934 45.6605 12.4499 45.2699 12.707C44.8825 12.9642 44.4024 13.0928 43.8295 13.0928C43.1003 13.0928 42.5225 12.8486 42.0961 12.3604C41.6697 11.8688 41.4564 11.2064 41.4564 10.373C41.4564 9.54297 41.6713 8.88053 42.101 8.38574C42.5307 7.89095 43.1068 7.64355 43.8295 7.64355C44.5391 7.64355 45.0974 7.87956 45.5043 8.35156C45.9112 8.82357 46.1146 9.46973 46.1146 10.29V10.6123H42.3305V10.6514C42.3532 11.1722 42.4997 11.5856 42.7699 11.8916C43.0434 12.1976 43.4031 12.3506 43.849 12.3506C44.5294 12.3506 44.9818 12.113 45.2064 11.6377Z" fill="#EB5757"/>
</svg>
